<svg width="209.759277" height="220.000000" viewBox="0 0 209.759 220" fill="none" xmlns="http://www.w3.org/2000/svg" xmlns:xlink="http://www.w3.org/1999/xlink">
	<desc>
			Created with Pixso.
	</desc>
	<defs/>
	<rect id="Logo-A" width="209.759460" height="220.000000" fill="#FFFFFF" fill-opacity="0"/>
	<path id="Subtract" d="M117.337 67.1406L121.463 47.7368L81.3701 47.7368C74.645 47.7368 68.811 52.3813 67.3042 58.9355L65.1458 68.3228C63.5461 71.6636 60.1709 73.79 56.467 73.79L45.5632 73.79L40.0981 100.022L70.1536 100.034C77.5632 100.036 84.3159 95.7827 87.5156 89.0996L92.1509 67.543L104.642 62.5928L117.337 67.1406Z" fill="#5CA552" fill-opacity="1.000000" fill-rule="nonzero"/>
	<path id="Union" d="M97.1824 15.1558L94.8799 26.1045C93.0068 35.0117 85.1497 41.3882 76.0479 41.3882L58.6614 41.3882C54.1104 41.3882 50.1819 44.5767 49.2454 49.0303L36.9016 107.727C36.2729 110.717 38.5542 113.528 41.6096 113.528L114.985 113.528L112.683 124.477C110.81 133.384 102.952 139.761 93.8506 139.761L11.856 139.761C5.74536 139.761 1.18262 134.139 2.43994 128.159L22.9883 30.4399C24.8613 21.5327 32.7185 15.1558 41.8203 15.1558L97.1824 15.1558Z" fill="#5CA552" fill-opacity="1.000000" fill-rule="nonzero"/>
	<path id="Subtract" d="M92.2981 72.6572L88.1726 92.061L128.265 92.061C134.99 92.061 140.824 87.4165 142.331 80.8623L144.49 71.4751C146.089 68.1343 149.464 66.0078 153.168 66.0078L164.072 66.0078L169.537 39.7754L139.482 39.7642C132.072 39.7622 125.319 44.0151 122.12 50.6982L117.484 72.2549L104.993 77.2051L92.2981 72.6572Z" fill="#E0B053" fill-opacity="1.000000" fill-rule="nonzero"/>
	<path id="Union" d="M112.453 124.643L114.755 113.694C116.628 104.787 124.486 98.4102 133.587 98.4102L150.974 98.4102C155.525 98.4102 159.454 95.2217 160.39 90.7681L172.733 32.0713C173.362 29.0815 171.081 26.2705 168.025 26.2705L94.6501 26.2705L96.9526 15.3213C98.8257 6.41455 106.683 0.0375977 115.785 0.0375977L197.779 0.0375977C203.89 0.0375977 208.453 5.65967 207.195 11.6396L186.647 109.358C184.774 118.266 176.917 124.643 167.815 124.643L112.453 124.643Z" fill="#E0B053" fill-opacity="1.000000" fill-rule="nonzero"/>
	<path id="3" d="M165.582 185.131C165.582 187.675 163.52 189.737 160.977 189.737L147.516 189.737L147.516 200.263L160.977 200.263C163.52 200.263 165.582 202.325 165.582 204.868C165.582 207.412 163.52 209.473 160.977 209.473L140.458 209.473L140.458 220L160.977 220C169.333 220 176.108 213.225 176.108 204.868C176.108 201.098 174.729 197.649 172.448 195C174.729 192.351 176.108 188.902 176.108 185.131C176.108 176.774 169.333 170 160.977 170L142.253 170L142.253 180.526L160.977 180.526C163.52 180.526 165.582 182.588 165.582 185.131Z" fill="#222222" fill-opacity="1.000000" fill-rule="nonzero"/>
	<path id="o" d="M102.763 197.304C102.763 188.316 109.833 181.031 118.554 181.031C127.276 181.031 134.346 188.316 134.346 197.304L134.346 203.728C134.346 212.715 127.276 220 118.554 220C109.833 220 102.763 212.715 102.763 203.728L102.763 197.304ZM118.554 188.542C113.858 188.542 110.051 192.464 110.051 197.304L110.051 203.728C110.051 208.567 113.858 212.49 118.554 212.49C123.251 212.49 127.058 208.567 127.058 203.728L127.058 197.304C127.058 192.464 123.251 188.542 118.554 188.542Z" fill="#222222" fill-opacity="1.000000" fill-rule="evenodd"/>
	<path id="t" d="M83.3145 170L90.6128 170L90.6128 180.588L83.3145 180.588L83.3145 170ZM101.16 212.489L96.6897 212.489C93.3352 212.489 90.616 209.687 90.616 206.23L90.616 190.625L100.299 190.625C101.261 187.864 102.803 185.378 104.781 183.328L76.6794 183.328L76.6794 190.619L83.3186 190.619L83.3276 206.23C83.3276 213.834 89.3101 219.999 96.6897 219.999L107.433 219.999C104.769 218.081 102.604 215.495 101.16 212.489Z" fill="#222222" fill-opacity="1.000000" fill-rule="evenodd"/>
	<path id="e" d="M33.6514 176.842C33.6514 173.063 36.7146 170 40.4934 170L67.5066 170L67.5066 180.526L44.1775 180.526L44.1775 189.737L67.5066 189.737L67.5066 200.263L44.1775 200.263L44.1775 209.473L72.7695 209.473L72.7695 220L40.4934 220C36.7146 220 33.6514 216.936 33.6514 213.157L33.6514 176.842Z" fill="#222222" fill-opacity="1.000000" fill-rule="nonzero"/>
</svg>
